<svg width="2300" height="290" viewBox="0 0 2300 290" fill="none" xmlns="http://www.w3.org/2000/svg">
<path d="M83.5391 131.396H28.7539L28.4609 101.221H74.457C82.5625 101.221 89.2031 100.195 94.3789 98.1445C99.5547 95.9961 103.412 92.9199 105.951 88.916C108.588 84.8145 109.906 79.834 109.906 73.9746C109.906 67.334 108.637 61.9629 106.098 57.8613C103.656 53.7598 99.7988 50.7813 94.5254 48.9258C89.3496 47.0703 82.6602 46.1426 74.457 46.1426H43.9883V225H0.0429688V11.7188H74.457C86.8594 11.7188 97.9434 12.8906 107.709 15.2344C117.572 17.5781 125.922 21.1426 132.758 25.9277C139.594 30.7129 144.818 36.7676 148.432 44.0918C152.045 51.3184 153.852 59.9121 153.852 69.873C153.852 78.6621 151.85 86.7676 147.846 94.1895C143.939 101.611 137.738 107.666 129.242 112.354C120.844 117.041 109.857 119.629 96.2832 120.117L83.5391 131.396ZM81.6348 225H16.7422L33.8809 190.723H81.6348C89.3496 190.723 95.6484 189.502 100.531 187.061C105.414 184.521 109.027 181.104 111.371 176.807C113.715 172.51 114.887 167.578 114.887 162.012C114.887 155.762 113.812 150.342 111.664 145.752C109.613 141.162 106.293 137.646 101.703 135.205C97.1133 132.666 91.0586 131.396 83.5391 131.396H41.2051L41.498 101.221H94.2324L104.34 113.086C117.328 112.891 127.777 115.186 135.688 119.971C143.695 124.658 149.506 130.762 153.119 138.281C156.83 145.801 158.686 153.857 158.686 162.451C158.686 176.123 155.707 187.646 149.75 197.021C143.793 206.299 135.053 213.281 123.529 217.969C112.104 222.656 98.1387 225 81.6348 225ZM261.957 227.93C249.652 227.93 238.617 225.977 228.852 222.07C219.086 218.066 210.785 212.549 203.949 205.518C197.211 198.486 192.035 190.332 188.422 181.055C184.809 171.68 183.002 161.719 183.002 151.172V145.312C183.002 133.301 184.711 122.314 188.129 112.354C191.547 102.393 196.43 93.75 202.777 86.4258C209.223 79.1016 217.035 73.4863 226.215 69.5801C235.395 65.5762 245.746 63.5742 257.27 63.5742C268.5 63.5742 278.461 65.4297 287.152 69.1406C295.844 72.8516 303.119 78.125 308.979 84.9609C314.936 91.7969 319.428 100 322.455 109.57C325.482 119.043 326.996 129.59 326.996 141.211V158.789H201.02V130.664H285.541V127.441C285.541 121.582 284.467 116.357 282.318 111.768C280.268 107.08 277.143 103.369 272.943 100.635C268.744 97.9004 263.373 96.5332 256.83 96.5332C251.264 96.5332 246.479 97.7539 242.475 100.195C238.471 102.637 235.199 106.055 232.66 110.449C230.219 114.844 228.363 120.02 227.094 125.977C225.922 131.836 225.336 138.281 225.336 145.312V151.172C225.336 157.52 226.215 163.379 227.973 168.75C229.828 174.121 232.416 178.76 235.736 182.666C239.154 186.572 243.256 189.6 248.041 191.748C252.924 193.896 258.441 194.971 264.594 194.971C272.211 194.971 279.291 193.506 285.834 190.576C292.475 187.549 298.188 183.008 302.973 176.953L323.48 199.219C320.16 204.004 315.619 208.594 309.857 212.988C304.193 217.383 297.357 220.996 289.35 223.828C281.342 226.562 272.211 227.93 261.957 227.93ZM395.99 207.129L438.031 66.5039H483.295L419.574 248.877C418.207 252.881 416.352 257.178 414.008 261.768C411.762 266.357 408.686 270.703 404.779 274.805C400.971 279.004 396.137 282.422 390.277 285.059C384.516 287.695 377.436 289.014 369.037 289.014C365.033 289.014 361.762 288.77 359.223 288.281C356.684 287.793 353.656 287.109 350.141 286.23V255.322C351.215 255.322 352.338 255.322 353.51 255.322C354.682 255.42 355.805 255.469 356.879 255.469C362.445 255.469 366.986 254.834 370.502 253.564C374.018 252.295 376.85 250.342 378.998 247.705C381.146 245.166 382.855 241.846 384.125 237.744L395.99 207.129ZM378.412 66.5039L412.836 181.348L418.842 226.025L390.131 229.102L333.148 66.5039H378.412ZM491.059 147.363V144.287C491.059 132.666 492.719 121.973 496.039 112.207C499.359 102.344 504.193 93.7988 510.541 86.5723C516.889 79.3457 524.701 73.7305 533.979 69.7266C543.256 65.625 553.9 63.5742 565.912 63.5742C577.924 63.5742 588.617 65.625 597.992 69.7266C607.367 73.7305 615.229 79.3457 621.576 86.5723C628.021 93.7988 632.904 102.344 636.225 112.207C639.545 121.973 641.205 132.666 641.205 144.287V147.363C641.205 158.887 639.545 169.58 636.225 179.443C632.904 189.209 628.021 197.754 621.576 205.078C615.229 212.305 607.416 217.92 598.139 221.924C588.861 225.928 578.217 227.93 566.205 227.93C554.193 227.93 543.5 225.928 534.125 221.924C524.848 217.92 516.986 212.305 510.541 205.078C504.193 197.754 499.359 189.209 496.039 179.443C492.719 169.58 491.059 158.887 491.059 147.363ZM533.246 144.287V147.363C533.246 154.004 533.832 160.205 535.004 165.967C536.176 171.729 538.031 176.807 540.57 181.201C543.207 185.498 546.625 188.867 550.824 191.309C555.023 193.75 560.15 194.971 566.205 194.971C572.064 194.971 577.094 193.75 581.293 191.309C585.492 188.867 588.861 185.498 591.4 181.201C593.939 176.807 595.795 171.729 596.967 165.967C598.236 160.205 598.871 154.004 598.871 147.363V144.287C598.871 137.842 598.236 131.787 596.967 126.123C595.795 120.361 593.891 115.283 591.254 110.889C588.715 106.396 585.346 102.881 581.146 100.342C576.947 97.8027 571.869 96.5332 565.912 96.5332C559.955 96.5332 554.877 97.8027 550.678 100.342C546.576 102.881 543.207 106.396 540.57 110.889C538.031 115.283 536.176 120.361 535.004 126.123C533.832 131.787 533.246 137.842 533.246 144.287ZM708.441 100.342V225H666.254V66.5039H705.805L708.441 100.342ZM702.289 140.186H690.863C690.863 128.467 692.377 117.92 695.404 108.545C698.432 99.0723 702.68 91.0156 708.148 84.375C713.617 77.6367 720.111 72.5098 727.631 68.9941C735.248 65.3809 743.744 63.5742 753.119 63.5742C760.541 63.5742 767.328 64.6484 773.48 66.7969C779.633 68.9453 784.906 72.3633 789.301 77.0508C793.793 81.7383 797.211 87.9395 799.555 95.6543C801.996 103.369 803.217 112.793 803.217 123.926V225H760.736V123.779C760.736 116.748 759.76 111.279 757.807 107.373C755.854 103.467 752.973 100.732 749.164 99.1699C745.453 97.5098 740.863 96.6797 735.395 96.6797C729.73 96.6797 724.799 97.8027 720.6 100.049C716.498 102.295 713.08 105.42 710.346 109.424C707.709 113.33 705.707 117.92 704.34 123.193C702.973 128.467 702.289 134.131 702.289 140.186ZM928.9 190.43V0H971.381V225H933.148L928.9 190.43ZM828.705 147.656V144.58C828.705 132.471 830.072 121.484 832.807 111.621C835.541 101.66 839.545 93.1152 844.818 85.9863C850.092 78.8574 856.586 73.3398 864.301 69.4336C872.016 65.5273 880.805 63.5742 890.668 63.5742C899.945 63.5742 908.051 65.5273 914.984 69.4336C922.016 73.3398 927.973 78.9062 932.855 86.1328C937.836 93.2617 941.84 101.709 944.867 111.475C947.895 121.143 950.092 131.738 951.459 143.262V150C950.092 161.035 947.895 171.289 944.867 180.762C941.84 190.234 937.836 198.535 932.855 205.664C927.973 212.695 922.016 218.164 914.984 222.07C907.953 225.977 899.75 227.93 890.375 227.93C880.512 227.93 871.723 225.928 864.008 221.924C856.391 217.92 849.945 212.305 844.672 205.078C839.496 197.852 835.541 189.355 832.807 179.59C830.072 169.824 828.705 159.18 828.705 147.656ZM870.893 144.58V147.656C870.893 154.199 871.381 160.303 872.357 165.967C873.432 171.631 875.141 176.66 877.484 181.055C879.926 185.352 883.051 188.721 886.859 191.162C890.766 193.506 895.502 194.678 901.068 194.678C908.295 194.678 914.252 193.066 918.939 189.844C923.627 186.523 927.191 181.982 929.633 176.221C932.172 170.459 933.637 163.818 934.027 156.299V137.109C933.734 130.957 932.855 125.439 931.391 120.557C930.023 115.576 927.973 111.328 925.238 107.812C922.602 104.297 919.281 101.562 915.277 99.6094C911.371 97.6562 906.732 96.6797 901.361 96.6797C895.893 96.6797 891.205 97.9492 887.299 100.488C883.393 102.93 880.219 106.299 877.777 110.596C875.434 114.893 873.676 119.971 872.504 125.83C871.43 131.592 870.893 137.842 870.893 144.58ZM1168.4 48.1934L1110.39 225H1063.67L1142.91 11.7188H1172.65L1168.4 48.1934ZM1216.6 225L1158.44 48.1934L1153.75 11.7188H1183.78L1263.47 225H1216.6ZM1213.96 145.605V180.029H1101.31V145.605H1213.96ZM1317.23 100.342V225H1275.04V66.5039H1314.59L1317.23 100.342ZM1311.08 140.186H1299.65C1299.65 128.467 1301.17 117.92 1304.19 108.545C1307.22 99.0723 1311.47 91.0156 1316.94 84.375C1322.41 77.6367 1328.9 72.5098 1336.42 68.9941C1344.04 65.3809 1352.53 63.5742 1361.91 63.5742C1369.33 63.5742 1376.12 64.6484 1382.27 66.7969C1388.42 68.9453 1393.7 72.3633 1398.09 77.0508C1402.58 81.7383 1406 87.9395 1408.34 95.6543C1410.79 103.369 1412.01 112.793 1412.01 123.926V225H1369.53V123.779C1369.53 116.748 1368.55 111.279 1366.6 107.373C1364.64 103.467 1361.76 100.732 1357.95 99.1699C1354.24 97.5098 1349.65 96.6797 1344.18 96.6797C1338.52 96.6797 1333.59 97.8027 1329.39 100.049C1325.29 102.295 1321.87 105.42 1319.13 109.424C1316.5 113.33 1314.5 117.92 1313.13 123.193C1311.76 128.467 1311.08 134.131 1311.08 140.186ZM1529.63 189.258V118.652C1529.63 113.574 1528.8 109.229 1527.14 105.615C1525.48 101.904 1522.89 99.0234 1519.38 96.9727C1515.96 94.9219 1511.52 93.8965 1506.05 93.8965C1501.36 93.8965 1497.31 94.7266 1493.89 96.3867C1490.47 97.9492 1487.84 100.244 1485.98 103.271C1484.12 106.201 1483.2 109.668 1483.2 113.672H1441.01C1441.01 106.934 1442.57 100.537 1445.7 94.4824C1448.82 88.4277 1453.36 83.1055 1459.32 78.5156C1465.28 73.8281 1472.36 70.166 1480.56 67.5293C1488.86 64.8926 1498.14 63.5742 1508.39 63.5742C1520.7 63.5742 1531.63 65.625 1541.21 69.7266C1550.78 73.8281 1558.29 79.9805 1563.76 88.1836C1569.33 96.3867 1572.11 106.641 1572.11 118.945V186.768C1572.11 195.459 1572.65 202.588 1573.72 208.154C1574.8 213.623 1576.36 218.408 1578.41 222.51V225H1535.79C1533.73 220.703 1532.17 215.332 1531.1 208.887C1530.12 202.344 1529.63 195.801 1529.63 189.258ZM1535.2 128.467L1535.49 152.344H1511.91C1506.34 152.344 1501.51 152.979 1497.41 154.248C1493.3 155.518 1489.94 157.324 1487.3 159.668C1484.66 161.914 1482.71 164.551 1481.44 167.578C1480.27 170.605 1479.68 173.926 1479.68 177.539C1479.68 181.152 1480.51 184.424 1482.17 187.354C1483.83 190.186 1486.22 192.432 1489.35 194.092C1492.47 195.654 1496.14 196.436 1500.34 196.436C1506.68 196.436 1512.2 195.166 1516.89 192.627C1521.58 190.088 1525.19 186.963 1527.73 183.252C1530.37 179.541 1531.73 176.025 1531.83 172.705L1542.96 190.576C1541.4 194.58 1539.25 198.73 1536.52 203.027C1533.88 207.324 1530.51 211.377 1526.41 215.186C1522.31 218.896 1517.38 221.973 1511.62 224.414C1505.85 226.758 1499.02 227.93 1491.11 227.93C1481.05 227.93 1471.92 225.928 1463.71 221.924C1455.61 217.822 1449.16 212.207 1444.38 205.078C1439.69 197.852 1437.35 189.648 1437.35 180.469C1437.35 172.168 1438.91 164.795 1442.04 158.35C1445.16 151.904 1449.75 146.484 1455.8 142.09C1461.96 137.598 1469.62 134.229 1478.8 131.982C1487.98 129.639 1498.63 128.467 1510.74 128.467H1535.2ZM1649.16 0V225H1606.83V0H1649.16ZM1731.05 207.129L1773.09 66.5039H1818.35L1754.63 248.877C1753.27 252.881 1751.41 257.178 1749.07 261.768C1746.82 266.357 1743.74 270.703 1739.84 274.805C1736.03 279.004 1731.2 282.422 1725.34 285.059C1719.57 287.695 1712.49 289.014 1704.1 289.014C1700.09 289.014 1696.82 288.77 1694.28 288.281C1691.74 287.793 1688.71 287.109 1685.2 286.23V255.322C1686.27 255.322 1687.4 255.322 1688.57 255.322C1689.74 255.42 1690.86 255.469 1691.94 255.469C1697.5 255.469 1702.04 254.834 1705.56 253.564C1709.08 252.295 1711.91 250.342 1714.06 247.705C1716.21 245.166 1717.91 241.846 1719.18 237.744L1731.05 207.129ZM1713.47 66.5039L1747.89 181.348L1753.9 226.025L1725.19 229.102L1668.21 66.5039H1713.47ZM1912.84 66.5039V96.3867H1820.55V66.5039H1912.84ZM1843.4 27.3926H1885.59V177.246C1885.59 181.836 1886.18 185.352 1887.35 187.793C1888.62 190.234 1890.47 191.943 1892.91 192.92C1895.36 193.799 1898.43 194.238 1902.14 194.238C1904.78 194.238 1907.12 194.141 1909.17 193.945C1911.32 193.652 1913.13 193.359 1914.59 193.066L1914.74 224.121C1911.13 225.293 1907.22 226.221 1903.02 226.904C1898.82 227.588 1894.18 227.93 1889.11 227.93C1879.83 227.93 1871.72 226.416 1864.79 223.389C1857.95 220.264 1852.68 215.283 1848.97 208.447C1845.26 201.611 1843.4 192.627 1843.4 181.494V27.3926ZM1981.39 66.5039V225H1939.06V66.5039H1981.39ZM1936.42 25.1953C1936.42 19.043 1938.57 13.9648 1942.87 9.96094C1947.16 5.95703 1952.92 3.95508 1960.15 3.95508C1967.28 3.95508 1972.99 5.95703 1977.29 9.96094C1981.68 13.9648 1983.88 19.043 1983.88 25.1953C1983.88 31.3477 1981.68 36.4258 1977.29 40.4297C1972.99 44.4336 1967.28 46.4355 1960.15 46.4355C1952.92 46.4355 1947.16 44.4336 1942.87 40.4297C1938.57 36.4258 1936.42 31.3477 1936.42 25.1953ZM2081.73 194.971C2086.91 194.971 2091.5 193.994 2095.5 192.041C2099.51 189.99 2102.63 187.158 2104.88 183.545C2107.22 179.834 2108.44 175.488 2108.54 170.508H2148.24C2148.14 181.641 2145.16 191.553 2139.3 200.244C2133.44 208.838 2125.58 215.625 2115.72 220.605C2105.85 225.488 2094.82 227.93 2082.61 227.93C2070.31 227.93 2059.56 225.879 2050.38 221.777C2041.3 217.676 2033.73 212.012 2027.68 204.785C2021.62 197.461 2017.08 188.965 2014.06 179.297C2011.03 169.531 2009.52 159.082 2009.52 147.949V143.701C2009.52 132.471 2011.03 122.021 2014.06 112.354C2017.08 102.588 2021.62 94.0918 2027.68 86.8652C2033.73 79.541 2041.3 73.8281 2050.38 69.7266C2059.47 65.625 2070.11 63.5742 2082.32 63.5742C2095.31 63.5742 2106.68 66.0645 2116.45 71.0449C2126.31 76.0254 2134.03 83.1543 2139.59 92.4316C2145.26 101.611 2148.14 112.5 2148.24 125.098H2108.54C2108.44 119.824 2107.32 115.039 2105.17 110.742C2103.12 106.445 2100.09 103.027 2096.09 100.488C2092.18 97.8516 2087.35 96.5332 2081.59 96.5332C2075.43 96.5332 2070.4 97.8516 2066.5 100.488C2062.59 103.027 2059.56 106.543 2057.42 111.035C2055.27 115.43 2053.75 120.459 2052.88 126.123C2052.09 131.689 2051.7 137.549 2051.7 143.701V147.949C2051.7 154.102 2052.09 160.01 2052.88 165.674C2053.66 171.338 2055.12 176.367 2057.27 180.762C2059.52 185.156 2062.59 188.623 2066.5 191.162C2070.4 193.701 2075.48 194.971 2081.73 194.971ZM2258.39 181.201C2258.39 178.174 2257.51 175.439 2255.76 172.998C2254 170.557 2250.73 168.311 2245.94 166.26C2241.25 164.111 2234.47 162.158 2225.58 160.4C2217.57 158.643 2210.1 156.445 2203.17 153.809C2196.33 151.074 2190.38 147.803 2185.3 143.994C2180.32 140.186 2176.41 135.693 2173.58 130.518C2170.75 125.244 2169.33 119.238 2169.33 112.5C2169.33 105.859 2170.75 99.6094 2173.58 93.75C2176.51 87.8906 2180.66 82.7148 2186.03 78.2227C2191.5 73.6328 2198.14 70.0684 2205.95 67.5293C2213.86 64.8926 2222.75 63.5742 2232.61 63.5742C2246.38 63.5742 2258.2 65.7715 2268.06 70.166C2278.02 74.5605 2285.64 80.6152 2290.91 88.3301C2296.28 95.9473 2298.97 104.639 2298.97 114.404H2256.78C2256.78 110.303 2255.9 106.641 2254.14 103.418C2252.48 100.098 2249.85 97.5098 2246.23 95.6543C2242.72 93.7012 2238.13 92.7246 2232.46 92.7246C2227.78 92.7246 2223.72 93.5547 2220.31 95.2148C2216.89 96.7773 2214.25 98.9258 2212.4 101.66C2210.64 104.297 2209.76 107.227 2209.76 110.449C2209.76 112.891 2210.25 115.088 2211.22 117.041C2212.3 118.896 2214.01 120.605 2216.35 122.168C2218.7 123.73 2221.72 125.195 2225.43 126.562C2229.24 127.832 2233.93 129.004 2239.5 130.078C2250.92 132.422 2261.13 135.498 2270.11 139.307C2279.1 143.018 2286.22 148.096 2291.5 154.541C2296.77 160.889 2299.41 169.238 2299.41 179.59C2299.41 186.621 2297.85 193.066 2294.72 198.926C2291.6 204.785 2287.1 209.912 2281.24 214.307C2275.38 218.604 2268.35 221.973 2260.15 224.414C2252.04 226.758 2242.91 227.93 2232.76 227.93C2218.01 227.93 2205.51 225.293 2195.26 220.02C2185.1 214.746 2177.39 208.057 2172.11 199.951C2166.94 191.748 2164.35 183.35 2164.35 174.756H2204.34C2204.54 180.518 2206 185.156 2208.73 188.672C2211.57 192.188 2215.13 194.727 2219.43 196.289C2223.82 197.852 2228.56 198.633 2233.64 198.633C2239.11 198.633 2243.65 197.9 2247.26 196.436C2250.87 194.873 2253.61 192.822 2255.46 190.283C2257.42 187.646 2258.39 184.619 2258.39 181.201Z" fill="white"/>
</svg>
