<svg width="2149" height="286" viewBox="0 0 2149 286" fill="none" xmlns="http://www.w3.org/2000/svg">
<path d="M65.5215 225H19.0859L19.3789 190.723H65.5215C77.0449 190.723 86.7617 188.135 94.6719 182.959C102.582 177.686 108.539 170.02 112.543 159.961C116.645 149.902 118.695 137.744 118.695 123.486V113.086C118.695 102.148 117.523 92.5293 115.18 84.2285C112.934 75.9277 109.564 68.9453 105.072 63.2812C100.58 57.6172 95.0625 53.3691 88.5195 50.5371C81.9766 47.6074 74.457 46.1426 65.9609 46.1426H18.207V11.7188H65.9609C80.2188 11.7188 93.2559 14.1602 105.072 19.043C116.986 23.8281 127.289 30.7129 135.98 39.6973C144.672 48.6816 151.361 59.4238 156.049 71.9238C160.834 84.3262 163.227 98.1445 163.227 113.379V123.486C163.227 138.623 160.834 152.441 156.049 164.941C151.361 177.441 144.672 188.184 135.98 197.168C127.387 206.055 117.084 212.939 105.072 217.822C93.1582 222.607 79.9746 225 65.5215 225ZM43.9883 11.7188V225H0.0429688V11.7188H43.9883ZM265.473 227.93C253.168 227.93 242.133 225.977 232.367 222.07C222.602 218.066 214.301 212.549 207.465 205.518C200.727 198.486 195.551 190.332 191.938 181.055C188.324 171.68 186.518 161.719 186.518 151.172V145.312C186.518 133.301 188.227 122.314 191.645 112.354C195.062 102.393 199.945 93.75 206.293 86.4258C212.738 79.1016 220.551 73.4863 229.73 69.5801C238.91 65.5762 249.262 63.5742 260.785 63.5742C272.016 63.5742 281.977 65.4297 290.668 69.1406C299.359 72.8516 306.635 78.125 312.494 84.9609C318.451 91.7969 322.943 100 325.971 109.57C328.998 119.043 330.512 129.59 330.512 141.211V158.789H204.535V130.664H289.057V127.441C289.057 121.582 287.982 116.357 285.834 111.768C283.783 107.08 280.658 103.369 276.459 100.635C272.26 97.9004 266.889 96.5332 260.346 96.5332C254.779 96.5332 249.994 97.7539 245.99 100.195C241.986 102.637 238.715 106.055 236.176 110.449C233.734 114.844 231.879 120.02 230.609 125.977C229.438 131.836 228.852 138.281 228.852 145.312V151.172C228.852 157.52 229.73 163.379 231.488 168.75C233.344 174.121 235.932 178.76 239.252 182.666C242.67 186.572 246.771 189.6 251.557 191.748C256.439 193.896 261.957 194.971 268.109 194.971C275.727 194.971 282.807 193.506 289.35 190.576C295.99 187.549 301.703 183.008 306.488 176.953L326.996 199.219C323.676 204.004 319.135 208.594 313.373 212.988C307.709 217.383 300.873 220.996 292.865 223.828C284.857 226.562 275.727 227.93 265.473 227.93ZM406.391 194.238L441.547 66.5039H485.639L432.172 225H405.512L406.391 194.238ZM382.221 66.5039L417.523 194.385L418.256 225H391.449L337.982 66.5039H382.221ZM575.434 227.93C563.129 227.93 552.094 225.977 542.328 222.07C532.562 218.066 524.262 212.549 517.426 205.518C510.688 198.486 505.512 190.332 501.898 181.055C498.285 171.68 496.479 161.719 496.479 151.172V145.312C496.479 133.301 498.188 122.314 501.605 112.354C505.023 102.393 509.906 93.75 516.254 86.4258C522.699 79.1016 530.512 73.4863 539.691 69.5801C548.871 65.5762 559.223 63.5742 570.746 63.5742C581.977 63.5742 591.938 65.4297 600.629 69.1406C609.32 72.8516 616.596 78.125 622.455 84.9609C628.412 91.7969 632.904 100 635.932 109.57C638.959 119.043 640.473 129.59 640.473 141.211V158.789H514.496V130.664H599.018V127.441C599.018 121.582 597.943 116.357 595.795 111.768C593.744 107.08 590.619 103.369 586.42 100.635C582.221 97.9004 576.85 96.5332 570.307 96.5332C564.74 96.5332 559.955 97.7539 555.951 100.195C551.947 102.637 548.676 106.055 546.137 110.449C543.695 114.844 541.84 120.02 540.57 125.977C539.398 131.836 538.812 138.281 538.812 145.312V151.172C538.812 157.52 539.691 163.379 541.449 168.75C543.305 174.121 545.893 178.76 549.213 182.666C552.631 186.572 556.732 189.6 561.518 191.748C566.4 193.896 571.918 194.971 578.07 194.971C585.688 194.971 592.768 193.506 599.311 190.576C605.951 187.549 611.664 183.008 616.449 176.953L636.957 199.219C633.637 204.004 629.096 208.594 623.334 212.988C617.67 217.383 610.834 220.996 602.826 223.828C594.818 226.562 585.688 227.93 575.434 227.93ZM709.027 0V225H666.693V0H709.027ZM737.152 147.363V144.287C737.152 132.666 738.812 121.973 742.133 112.207C745.453 102.344 750.287 93.7988 756.635 86.5723C762.982 79.3457 770.795 73.7305 780.072 69.7266C789.35 65.625 799.994 63.5742 812.006 63.5742C824.018 63.5742 834.711 65.625 844.086 69.7266C853.461 73.7305 861.322 79.3457 867.67 86.5723C874.115 93.7988 878.998 102.344 882.318 112.207C885.639 121.973 887.299 132.666 887.299 144.287V147.363C887.299 158.887 885.639 169.58 882.318 179.443C878.998 189.209 874.115 197.754 867.67 205.078C861.322 212.305 853.51 217.92 844.232 221.924C834.955 225.928 824.311 227.93 812.299 227.93C800.287 227.93 789.594 225.928 780.219 221.924C770.941 217.92 763.08 212.305 756.635 205.078C750.287 197.754 745.453 189.209 742.133 179.443C738.812 169.58 737.152 158.887 737.152 147.363ZM779.34 144.287V147.363C779.34 154.004 779.926 160.205 781.098 165.967C782.27 171.729 784.125 176.807 786.664 181.201C789.301 185.498 792.719 188.867 796.918 191.309C801.117 193.75 806.244 194.971 812.299 194.971C818.158 194.971 823.188 193.75 827.387 191.309C831.586 188.867 834.955 185.498 837.494 181.201C840.033 176.807 841.889 171.729 843.061 165.967C844.33 160.205 844.965 154.004 844.965 147.363V144.287C844.965 137.842 844.33 131.787 843.061 126.123C841.889 120.361 839.984 115.283 837.348 110.889C834.809 106.396 831.439 102.881 827.24 100.342C823.041 97.8027 817.963 96.5332 812.006 96.5332C806.049 96.5332 800.971 97.8027 796.771 100.342C792.67 102.881 789.301 106.396 786.664 110.889C784.125 115.283 782.27 120.361 781.098 126.123C779.926 131.787 779.34 137.842 779.34 144.287ZM955.414 96.9727V285.938H913.227V66.5039H952.338L955.414 96.9727ZM1055.76 143.994V147.07C1055.76 158.594 1054.39 169.287 1051.65 179.15C1049.02 189.014 1045.11 197.607 1039.94 204.932C1034.76 212.158 1028.31 217.822 1020.6 221.924C1012.98 225.928 1004.19 227.93 994.232 227.93C984.564 227.93 976.166 225.977 969.037 222.07C961.908 218.164 955.902 212.695 951.02 205.664C946.234 198.535 942.377 190.283 939.447 180.908C936.518 171.533 934.271 161.475 932.709 150.732V142.676C934.271 131.152 936.518 120.605 939.447 111.035C942.377 101.367 946.234 93.0176 951.02 85.9863C955.902 78.8574 961.859 73.3398 968.891 69.4336C976.02 65.5273 984.369 63.5742 993.939 63.5742C1004 63.5742 1012.84 65.4785 1020.45 69.2871C1028.17 73.0957 1034.61 78.5645 1039.79 85.6934C1045.06 92.8223 1049.02 101.318 1051.65 111.182C1054.39 121.045 1055.76 131.982 1055.76 143.994ZM1013.42 147.07V143.994C1013.42 137.256 1012.84 131.055 1011.66 125.391C1010.59 119.629 1008.83 114.6 1006.39 110.303C1004.05 106.006 1000.92 102.686 997.016 100.342C993.207 97.9004 988.568 96.6797 983.1 96.6797C977.338 96.6797 972.406 97.6074 968.305 99.4629C964.301 101.318 961.029 104.004 958.49 107.52C955.951 111.035 954.047 115.234 952.777 120.117C951.508 125 950.727 130.518 950.434 136.67V157.031C950.922 164.258 952.289 170.752 954.535 176.514C956.781 182.178 960.248 186.67 964.936 189.99C969.623 193.311 975.775 194.971 983.393 194.971C988.959 194.971 993.646 193.75 997.455 191.309C1001.26 188.77 1004.34 185.303 1006.68 180.908C1009.12 176.514 1010.83 171.436 1011.81 165.674C1012.88 159.912 1013.42 153.711 1013.42 147.07ZM1246.04 48.1934L1188.03 225H1141.3L1220.55 11.7188H1250.29L1246.04 48.1934ZM1294.23 225L1236.08 48.1934L1231.39 11.7188H1261.42L1341.11 225H1294.23ZM1291.6 145.605V180.029H1178.95V145.605H1291.6ZM1394.87 100.342V225H1352.68V66.5039H1392.23L1394.87 100.342ZM1388.71 140.186H1377.29C1377.29 128.467 1378.8 117.92 1381.83 108.545C1384.86 99.0723 1389.11 91.0156 1394.57 84.375C1400.04 77.6367 1406.54 72.5098 1414.06 68.9941C1421.67 65.3809 1430.17 63.5742 1439.54 63.5742C1446.97 63.5742 1453.75 64.6484 1459.91 66.7969C1466.06 68.9453 1471.33 72.3633 1475.73 77.0508C1480.22 81.7383 1483.64 87.9395 1485.98 95.6543C1488.42 103.369 1489.64 112.793 1489.64 123.926V225H1447.16V123.779C1447.16 116.748 1446.19 111.279 1444.23 107.373C1442.28 103.467 1439.4 100.732 1435.59 99.1699C1431.88 97.5098 1427.29 96.6797 1421.82 96.6797C1416.16 96.6797 1411.22 97.8027 1407.03 100.049C1402.92 102.295 1399.51 105.42 1396.77 109.424C1394.13 113.33 1392.13 117.92 1390.77 123.193C1389.4 128.467 1388.71 134.131 1388.71 140.186ZM1607.42 181.201C1607.42 178.174 1606.54 175.439 1604.78 172.998C1603.02 170.557 1599.75 168.311 1594.96 166.26C1590.28 164.111 1583.49 162.158 1574.6 160.4C1566.6 158.643 1559.12 156.445 1552.19 153.809C1545.36 151.074 1539.4 147.803 1534.32 143.994C1529.34 140.186 1525.43 135.693 1522.6 130.518C1519.77 125.244 1518.35 119.238 1518.35 112.5C1518.35 105.859 1519.77 99.6094 1522.6 93.75C1525.53 87.8906 1529.68 82.7148 1535.05 78.2227C1540.52 73.6328 1547.16 70.0684 1554.97 67.5293C1562.88 64.8926 1571.77 63.5742 1581.63 63.5742C1595.4 63.5742 1607.22 65.7715 1617.08 70.166C1627.04 74.5605 1634.66 80.6152 1639.94 88.3301C1645.31 95.9473 1647.99 104.639 1647.99 114.404H1605.8C1605.8 110.303 1604.93 106.641 1603.17 103.418C1601.51 100.098 1598.87 97.5098 1595.26 95.6543C1591.74 93.7012 1587.15 92.7246 1581.49 92.7246C1576.8 92.7246 1572.75 93.5547 1569.33 95.2148C1565.91 96.7773 1563.28 98.9258 1561.42 101.66C1559.66 104.297 1558.78 107.227 1558.78 110.449C1558.78 112.891 1559.27 115.088 1560.25 117.041C1561.32 118.896 1563.03 120.605 1565.38 122.168C1567.72 123.73 1570.75 125.195 1574.46 126.562C1578.27 127.832 1582.95 129.004 1588.52 130.078C1599.95 132.422 1610.15 135.498 1619.13 139.307C1628.12 143.018 1635.25 148.096 1640.52 154.541C1645.79 160.889 1648.43 169.238 1648.43 179.59C1648.43 186.621 1646.87 193.066 1643.74 198.926C1640.62 204.785 1636.13 209.912 1630.27 214.307C1624.41 218.604 1617.38 221.973 1609.17 224.414C1601.07 226.758 1591.94 227.93 1581.78 227.93C1567.04 227.93 1554.54 225.293 1544.28 220.02C1534.12 214.746 1526.41 208.057 1521.14 199.951C1515.96 191.748 1513.37 183.35 1513.37 174.756H1553.36C1553.56 180.518 1555.02 185.156 1557.76 188.672C1560.59 192.188 1564.15 194.727 1568.45 196.289C1572.85 197.852 1577.58 198.633 1582.66 198.633C1588.13 198.633 1592.67 197.9 1596.28 196.436C1599.9 194.873 1602.63 192.822 1604.49 190.283C1606.44 187.646 1607.42 184.619 1607.42 181.201ZM1721.09 183.984L1754.05 66.5039H1780.85L1772.21 112.646L1739.25 225H1716.84L1721.09 183.984ZM1704.39 66.5039L1727.97 183.838L1730.17 225H1703.8L1663.67 66.5039H1704.39ZM1811.03 181.934L1834.03 66.5039H1874.9L1834.76 225H1808.54L1811.03 181.934ZM1784.52 66.5039L1817.33 183.105L1821.87 225H1799.31L1766.35 112.793L1758 66.5039H1784.52ZM1969.09 227.93C1956.78 227.93 1945.75 225.977 1935.98 222.07C1926.21 218.066 1917.91 212.549 1911.08 205.518C1904.34 198.486 1899.16 190.332 1895.55 181.055C1891.94 171.68 1890.13 161.719 1890.13 151.172V145.312C1890.13 133.301 1891.84 122.314 1895.26 112.354C1898.68 102.393 1903.56 93.75 1909.91 86.4258C1916.35 79.1016 1924.16 73.4863 1933.34 69.5801C1942.52 65.5762 1952.88 63.5742 1964.4 63.5742C1975.63 63.5742 1985.59 65.4297 1994.28 69.1406C2002.97 72.8516 2010.25 78.125 2016.11 84.9609C2022.06 91.7969 2026.56 100 2029.58 109.57C2032.61 119.043 2034.12 129.59 2034.12 141.211V158.789H1908.15V130.664H1992.67V127.441C1992.67 121.582 1991.6 116.357 1989.45 111.768C1987.4 107.08 1984.27 103.369 1980.07 100.635C1975.87 97.9004 1970.5 96.5332 1963.96 96.5332C1958.39 96.5332 1953.61 97.7539 1949.6 100.195C1945.6 102.637 1942.33 106.055 1939.79 110.449C1937.35 114.844 1935.49 120.02 1934.22 125.977C1933.05 131.836 1932.46 138.281 1932.46 145.312V151.172C1932.46 157.52 1933.34 163.379 1935.1 168.75C1936.96 174.121 1939.54 178.76 1942.87 182.666C1946.28 186.572 1950.38 189.6 1955.17 191.748C1960.05 193.896 1965.57 194.971 1971.72 194.971C1979.34 194.971 1986.42 193.506 1992.96 190.576C1999.6 187.549 2005.32 183.008 2010.1 176.953L2030.61 199.219C2027.29 204.004 2022.75 208.594 2016.99 212.988C2011.32 217.383 2004.49 220.996 1996.48 223.828C1988.47 226.562 1979.34 227.93 1969.09 227.93ZM2100.34 101.074V225H2058.15V66.5039H2097.85L2100.34 101.074ZM2148.09 65.4785L2147.36 104.59C2145.31 104.297 2142.82 104.053 2139.89 103.857C2137.05 103.564 2134.47 103.418 2132.12 103.418C2126.17 103.418 2120.99 104.199 2116.6 105.762C2112.3 107.227 2108.69 109.424 2105.76 112.354C2102.92 115.283 2100.78 118.848 2099.31 123.047C2097.94 127.246 2097.16 132.031 2096.97 137.402L2088.47 134.766C2088.47 124.512 2089.5 115.088 2091.55 106.494C2093.6 97.8027 2096.58 90.2344 2100.48 83.7891C2104.49 77.3438 2109.37 72.3633 2115.13 68.8477C2120.89 65.332 2127.48 63.5742 2134.91 63.5742C2137.25 63.5742 2139.64 63.7695 2142.08 64.1602C2144.53 64.4531 2146.53 64.8926 2148.09 65.4785Z" fill="white"/>
</svg>
